<?xml version="1.0" standalone="no"?>
<!DOCTYPE svg PUBLIC "-//W3C//DTD SVG 20010904//EN"
 "http://www.w3.org/TR/2001/REC-SVG-20010904/DTD/svg10.dtd">
<svg version="1.0" xmlns="http://www.w3.org/2000/svg"
 width="99.000000pt" height="85.000000pt" viewBox="0 0 99.000000 85.000000"
 preserveAspectRatio="xMidYMid meet">

<g transform="translate(0.000000,85.000000) scale(0.100000,-0.100000)"
fill="#000000" stroke="none">
<path d="M638 805 c-140 -45 -183 -215 -82 -319 19 -20 81 -59 136 -87 125
-63 148 -86 148 -148 0 -83 -48 -121 -152 -121 -49 0 -77 7 -127 30 -68 32
-81 30 -81 -15 0 -38 29 -64 96 -85 80 -24 142 -25 215 -4 140 41 202 208 119
322 -21 29 -57 54 -150 102 -154 80 -185 122 -146 198 32 62 132 75 223 28 29
-14 55 -26 58 -26 3 0 5 21 5 46 0 44 -1 46 -47 66 -61 27 -154 32 -215 13z"/>
<path d="M47 804 c-4 -4 -7 -170 -7 -369 0 -296 3 -365 14 -374 9 -8 69 -11
192 -9 l179 3 0 40 0 40 -142 3 -143 3 -2 332 -3 332 -40 3 c-23 2 -44 0 -48
-4z"/>
</g>
</svg>
