<?xml version="1.0" standalone="no"?>
<!DOCTYPE svg PUBLIC "-//W3C//DTD SVG 20010904//EN"
 "http://www.w3.org/TR/2001/REC-SVG-20010904/DTD/svg10.dtd">
<svg version="1.0" xmlns="http://www.w3.org/2000/svg"
 width="1056.000000pt" height="1056.000000pt" viewBox="0 0 1056.000000 1056.000000"
 preserveAspectRatio="xMidYMid meet">
<metadata>
Created by potrace 1.14, written by Peter Selinger 2001-2017
</metadata>
<g transform="translate(0.000000,1056.000000) scale(0.100000,-0.100000)"
fill="#000000" stroke="none">
<path d="M7697 9454 c-2 -1 -235 -12 -317 -15 -20 -1 -277 -37 -315 -45 -46
-9 -60 -12 -60 -14 0 -2 -10 -4 -70 -14 -16 -2 -65 -16 -109 -30 -43 -14 -85
-26 -92 -26 -8 0 -14 -4 -14 -10 0 -5 -3 -9 -7 -8 -5 1 -24 -4 -43 -11 -19 -8
-40 -15 -45 -16 -53 -13 -328 -164 -400 -221 -11 -8 -32 -23 -47 -32 -16 -9
-28 -20 -28 -24 0 -4 -5 -8 -11 -8 -7 0 -19 -8 -28 -18 -9 -10 -29 -28 -46
-41 -98 -74 -243 -233 -345 -376 -27 -38 -53 -74 -57 -80 -5 -5 -15 -23 -23
-40 -8 -16 -18 -32 -21 -35 -23 -18 -172 -351 -182 -406 -2 -11 -7 -26 -10
-34 -12 -27 -56 -227 -62 -277 -3 -26 -8 -61 -11 -78 -2 -16 -6 -78 -8 -137
-3 -59 -7 -111 -10 -116 -3 -5 -3 -12 0 -15 3 -3 8 -43 10 -89 4 -83 11 -163
14 -163 2 0 7 -27 14 -76 22 -157 111 -415 203 -587 48 -89 150 -244 210 -318
164 -202 286 -306 613 -521 69 -45 130 -87 137 -93 7 -5 14 -10 17 -10 4 0
142 -83 216 -130 8 -5 38 -22 65 -38 28 -16 67 -38 88 -50 137 -80 305 -170
572 -307 178 -91 279 -144 385 -203 25 -13 74 -40 110 -60 36 -19 92 -51 125
-71 33 -20 73 -42 88 -50 15 -8 27 -18 27 -23 0 -4 5 -8 11 -8 6 0 30 -13 54
-30 24 -16 48 -30 53 -30 6 0 12 -4 14 -8 2 -5 25 -23 52 -42 139 -95 281
-224 360 -330 49 -66 128 -220 140 -275 29 -129 37 -183 41 -273 3 -57 7 -108
10 -113 4 -5 3 -9 -2 -9 -4 0 -8 -35 -9 -78 0 -93 -10 -198 -25 -261 -6 -25
-13 -55 -14 -66 -5 -32 -56 -179 -67 -192 -6 -7 -8 -13 -5 -13 3 0 -12 -33
-35 -72 -153 -272 -395 -437 -783 -532 -91 -22 -181 -38 -227 -40 -10 0 -18
-3 -18 -6 0 -3 -19 -6 -43 -6 -23 -1 -91 -5 -152 -9 -188 -13 -460 -9 -625 10
-80 9 -126 15 -150 21 -14 3 -38 6 -55 8 -16 2 -40 6 -52 10 -12 4 -30 8 -40
10 -10 2 -38 10 -63 17 -25 7 -49 13 -55 15 -5 1 -57 18 -115 39 -58 20 -109
38 -115 39 -5 1 -21 8 -35 14 -14 6 -74 32 -135 58 -60 25 -144 62 -185 81
-158 73 -352 153 -384 160 -11 2 -24 7 -30 12 -10 7 -61 22 -131 38 -51 11
-168 8 -173 -5 -2 -7 -9 -12 -15 -12 -18 0 -55 -44 -72 -83 -17 -41 -24 -76
-29 -152 -3 -30 -7 -59 -11 -65 -3 -5 -2 -10 2 -10 7 0 9 -44 3 -60 -1 -3 -1
-9 0 -15 1 -5 4 -30 6 -55 5 -65 24 -139 45 -182 11 -21 19 -44 19 -53 0 -8 4
-15 8 -15 5 0 14 -11 20 -25 15 -32 23 -42 97 -118 106 -109 178 -160 340
-243 201 -102 480 -202 722 -259 10 -3 36 -9 58 -15 22 -6 54 -12 71 -15 17
-2 44 -9 58 -15 15 -5 30 -9 34 -9 4 1 9 0 12 -1 9 -3 44 -9 95 -16 28 -3 53
-8 56 -10 11 -6 171 -29 279 -39 30 -2 82 -7 115 -10 64 -6 367 -6 450 0 123
9 264 26 345 41 14 3 39 7 55 10 17 2 37 6 45 8 8 1 33 6 55 11 44 8 169 38
255 61 30 8 62 16 70 18 19 5 110 35 130 43 8 3 20 7 25 8 54 14 274 118 382
181 69 41 189 120 203 134 3 3 39 32 80 65 80 64 235 215 312 305 59 68 158
207 158 220 0 6 3 10 8 10 4 0 18 20 32 45 14 25 28 45 33 45 4 0 6 4 2 9 -3
5 1 15 8 23 15 15 121 229 132 268 4 14 11 30 15 35 13 18 94 281 104 342 14
79 24 128 26 128 1 0 3 14 4 30 17 182 20 235 20 325 0 119 -12 252 -29 340
-4 19 -8 46 -10 60 -7 46 -34 156 -51 201 -8 24 -18 55 -20 68 -3 13 -14 42
-24 64 -11 23 -20 46 -20 52 0 31 -190 375 -211 383 -5 2 -9 8 -9 13 0 34
-203 251 -330 352 -47 38 -93 75 -103 83 -9 8 -21 14 -26 14 -5 0 -11 4 -13 8
-1 5 -43 36 -93 68 -49 32 -91 62 -93 67 -2 4 -9 7 -15 7 -6 0 -18 6 -26 14
-9 7 -36 24 -61 38 -25 13 -64 36 -88 51 -23 15 -59 37 -80 48 -20 11 -44 24
-52 29 -34 22 -342 190 -347 190 -3 0 -18 9 -34 21 -16 11 -29 17 -29 14 0 -3
-12 2 -27 12 -16 11 -64 37 -108 59 -44 21 -82 41 -85 44 -3 3 -36 21 -75 40
-38 19 -103 53 -145 76 -41 23 -102 56 -135 73 -64 35 -118 65 -175 98 -19 11
-62 36 -95 55 -223 128 -535 339 -655 443 -62 54 -235 229 -266 270 -36 48
-95 140 -111 175 -33 74 -43 100 -53 145 -7 28 -14 59 -16 70 -8 33 -7 177 1
225 11 67 12 70 29 138 9 34 22 75 28 90 6 15 12 29 13 32 27 72 112 245 133
272 6 7 31 38 56 69 24 31 60 72 79 91 46 46 153 128 166 128 6 0 11 4 11 8 0
13 180 99 277 131 93 31 154 47 221 57 20 3 48 7 62 10 118 23 457 23 570 0
14 -2 48 -7 75 -10 52 -6 84 -11 113 -20 9 -3 31 -8 47 -11 17 -3 55 -12 85
-20 30 -9 62 -18 70 -20 8 -2 16 -4 18 -5 2 -3 2 -3 47 -15 17 -4 35 -10 40
-14 6 -3 16 -6 23 -7 40 -6 255 -101 461 -202 64 -32 118 -59 121 -59 3 -1 43
-19 90 -41 47 -22 101 -46 120 -55 126 -56 151 -66 178 -71 28 -7 30 -5 41 38
13 52 24 165 25 248 1 32 5 58 9 58 4 0 4 8 -1 18 -5 9 -6 28 -2 42 4 14 3 35
-1 48 -5 12 -5 22 -1 22 7 0 7 37 -1 98 -2 17 0 32 5 32 5 0 6 5 2 12 -4 7 -9
42 -10 78 -6 147 -39 232 -116 293 -18 15 -39 32 -45 37 -16 13 -230 120 -240
120 -4 0 -35 13 -68 29 -96 46 -375 146 -375 134 0 -3 -7 1 -17 8 -9 8 -18 13
-20 11 -2 -2 -29 2 -61 9 -69 15 -71 16 -74 19 -6 4 -85 19 -138 26 -25 3 -52
8 -60 11 -8 3 -31 7 -50 9 -18 2 -48 6 -65 8 -16 3 -55 8 -85 11 -30 3 -73 8
-95 10 -65 7 -384 22 -388 19z"/>
<path d="M648 9364 c-3 -2 -25 -7 -49 -10 -55 -7 -101 -33 -105 -59 -20 -127
-38 -635 -49 -1365 -3 -190 -7 -375 -8 -412 -1 -41 2 -68 8 -68 7 0 7 -3 0 -8
-6 -4 -11 -131 -12 -337 -3 -448 -6 -2868 -3 -2880 1 -5 1 -14 0 -20 -1 -5 -1
-97 0 -205 1 -107 2 -355 3 -550 1 -224 6 -358 12 -362 6 -5 6 -8 -1 -8 -11 0
-11 -40 0 -59 4 -5 2 -12 -3 -16 -7 -3 -7 -15 -1 -29 5 -13 7 -26 5 -28 -16
-15 15 -906 39 -1163 20 -206 39 -299 73 -354 16 -24 33 -44 38 -43 6 0 15 -3
20 -8 9 -7 37 -15 95 -27 102 -21 324 -38 645 -48 166 -5 981 -5 1320 0 337 6
883 16 915 17 14 0 34 -3 44 -7 11 -5 17 -5 14 1 -4 5 72 10 185 10 564 4 697
8 698 24 4 76 3 824 -1 830 -3 5 -64 10 -135 11 -72 2 -135 7 -142 11 -6 5
-14 5 -17 0 -6 -10 -97 -8 -114 2 -6 3 -13 2 -17 -3 -3 -5 -15 -8 -28 -5 -12
2 -137 6 -277 9 -265 5 -481 10 -955 21 -154 3 -371 7 -482 7 -112 1 -203 6
-203 10 0 4 -9 3 -19 -3 -12 -6 -22 -6 -26 -1 -3 6 -17 6 -34 1 -16 -4 -32 -6
-35 -3 -3 3 -110 8 -238 10 -128 2 -251 5 -273 6 l-40 2 -2 200 c-1 110 -4
570 -6 1023 -3 453 -7 825 -10 829 -4 3 -2 13 3 23 5 10 7 20 4 23 -3 3 -5 26
-4 51 0 25 1 52 1 59 1 30 -12 1696 -16 2102 -12 1263 -18 1936 -19 2282 0
211 -4 383 -8 383 -4 0 -3 12 1 28 13 51 3 72 -35 74 -51 2 -190 14 -299 25
-69 6 -452 13 -457 7z"/>
</g>
</svg>
